<?xml version="1.0" encoding="UTF-8"?>
<svg id="Layer_2" data-name="Layer 2" xmlns="http://www.w3.org/2000/svg" viewBox="0 0 693.94 811.45">
  <defs>
    <style>
      .cls-1 {
        fill: #231aa8;
      }
    </style>
  </defs>
  <g id="Layer_1-2" data-name="Layer 1">
    <g>
      <path class="cls-1" d="M684.82,397.18h-.07s-6.05-2.01-6.05-2.01l-312.96-187.3c4.35-6.46,6.94-14.06,6.94-22.07,0-17.2-11.02-31.88-26.36-37.34v-12.71l25.63-18.76c3.42-2.49,5.42-6.46,5.42-10.71v-51.33c0-7.32-5.94-13.26-13.26-13.26h-18.24l-.03-41.69h-26.53v41.73h-17.27c-7.32,0-13.26,5.94-13.26,13.26v51.33c0,4.21,2,8.22,5.42,10.71l25.6,18.72v23.73c0,7.32,5.94,13.26,13.26,13.26s13.09,5.87,13.09,13.09c0,3.14-1.14,6.08-3.14,8.43l-2.94-1.76c-.07-.03-.14-.03-.21-.07-1.11-.66-2.31-1.11-3.56-1.42-.35-.07-.69-.07-1.04-.14-.9-.14-1.83-.21-2.76-.17-.45.03-.9.1-1.35.17-.38.07-.79.03-1.17.14-.45.1-.86.35-1.31.52-.41.14-.79.28-1.21.48-1.07.52-2.04,1.14-2.94,1.9-.07.07-.17.1-.24.17l-.1.07-.66.62c-1.66-1.73-2.9-3.87-3.35-6.18-.45-2.28-.35-4.53.31-6.63,2.14-7.01-1.8-14.44-8.81-16.58-7.01-2.14-14.44,1.8-16.58,8.81-1.9,6.22-2.25,12.99-.97,19.48,1.42,7.22,4.91,13.71,9.74,18.96L4.32,485.23l.1.1c-2.69,2.45-4.42,5.91-4.42,9.71v234.38c0,5.7,3.63,10.74,9.02,12.57l203.77,68.77c1.38.48,2.8.69,4.25.69s2.8-.21,4.15-.66l463.64-153.09c5.42-1.8,9.12-6.87,9.12-12.61v-235.3c0-5.73-3.7-10.81-9.12-12.61ZM564.52,357.77l-76.65-25.11v-.04s.55-.59.55-.59l-57.45-54.2,133.55,79.93ZM639.54,410.27l-405.12,132.79,39.55-118.87,204.81-66.63,160.77,52.71ZM333.11,112.58l-17.75-12.99v-31.33h35.51v31.33l-17.76,12.99ZM339.29,227.82l116.03,109.47-170.95,55.62,54.92-165.08ZM304.64,247.85l-51.64,155.23-185.22,60.24,236.86-215.48ZM94.8,742.93l-68.29-23.04v-206.6l68.29,22.9v206.74ZM203.57,779.64l-82.25-27.77v-206.78l82.25,27.6v206.95ZM216.14,563.2l.45-1.35.45,1.35h-.9ZM205.64,545.41l-149.81-50.29,186.77-60.76v.03s-36.96,111.02-36.96,111.02ZM667.38,635.54l-437.28,144.39v-207.54l437.28-143.32v206.47Z"/>
      <path class="cls-1" d="M602.88,633.77c7.32,0,13.26-5.94,13.26-13.26v-129.75c0-7.32-5.94-13.26-13.26-13.26s-13.26,5.94-13.26,13.26v129.75c0,7.32,5.94,13.26,13.26,13.26Z"/>
      <path class="cls-1" d="M527.34,658.33c7.32,0,13.26-5.94,13.26-13.26v-129.75c0-7.32-5.94-13.26-13.26-13.26s-13.26,5.94-13.26,13.26v129.75c0,7.32,5.94,13.26,13.26,13.26Z"/>
      <path class="cls-1" d="M451.79,683.47c7.32,0,13.26-5.94,13.26-13.26v-129.75c0-7.32-5.94-13.26-13.26-13.26s-13.26,5.94-13.26,13.26v129.75c0,7.32,5.94,13.26,13.26,13.26Z"/>
      <path class="cls-1" d="M376.22,708.69c7.32,0,13.26-5.94,13.26-13.26v-129.71c0-7.32-5.94-13.26-13.26-13.26s-13.26,5.94-13.26,13.26v129.71c0,7.32,5.94,13.26,13.26,13.26Z"/>
      <path class="cls-1" d="M300.67,733.6c7.32,0,13.26-5.94,13.26-13.26v-129.75c0-7.32-5.94-13.26-13.26-13.26s-13.26,5.94-13.26,13.26v129.75c0,7.32,5.94,13.26,13.26,13.26Z"/>
    </g>
  </g>
</svg>