<?xml version="1.0" encoding="UTF-8"?>
<svg id="Layer_2" data-name="Layer 2" xmlns="http://www.w3.org/2000/svg" viewBox="0 0 714.79 673.17">
  <defs>
    <style>
      .cls-1 {
        fill: #231aa8;
      }
    </style>
  </defs>
  <g id="Layer_1-2" data-name="Layer 1">
    <g>
      <path class="cls-1" d="M714.79,362.41c0-69.78-56.85-126.55-126.75-126.55h-83.11c-1.91-1.53-3.83-3.04-5.79-4.5,6.64-7.24,13.56-14.45,20.32-21.48,34.13-35.49,66.35-69,66.35-108.01,0-56.17-45.76-101.86-102.02-101.86s-102.02,45.7-102.02,101.86c0,34.56,26.3,65.56,54.81,95.37-27.21-10.07-56.19-15.37-85.54-15.37-55.88,0-110.41,19.16-153.89,54h-44.58c22.2-12.02,37.3-35.5,37.3-62.43,0-39.13-31.89-70.96-71.07-70.96s-71.07,31.83-71.07,70.96c0,28.78,17.25,53.59,41.97,64.71-15.17,5.43-26.06,19.93-26.06,36.92,0,21.62,17.62,39.2,39.26,39.2h29.8c-15.49,29.77-24.78,62.69-27.1,96.27h-2.7c-56.73,0-102.89,46.08-102.89,102.73s46.15,102.73,102.89,102.73h90.39c44.17,36.87,100.07,57.17,157.75,57.17s110.66-19.24,154.14-54.16c41.28-33.17,71-79.19,84.15-130.08,69.3-.69,125.47-57.17,125.47-126.51ZM458.34,198.31c-31.72-32.64-61.68-63.48-61.68-96.45,0-47.95,39.09-86.97,87.13-86.97s87.13,39.02,87.13,86.97c0,33.02-30.2,64.43-62.19,97.69-7.27,7.56-14.71,15.31-21.85,23.16-4.12-2.72-8.32-5.31-12.59-7.78-5.29-5.61-10.67-11.17-15.96-16.62ZM351.04,196.76c40.07,0,79.4,10.48,113.94,29.99,2.84,3.03,5.63,6.07,8.35,9.1h-251.02c37.88-25.34,82.82-39.09,128.74-39.09ZM62.62,173.43c0-30.92,25.21-56.08,56.18-56.08s56.18,25.16,56.18,56.08-25.2,56.08-56.18,56.08-56.18-25.15-56.18-56.08ZM149.6,314.27h152.96c-.19.67-.33,1.36-.33,2.09v47.64c0,4.12,3.34,7.45,7.45,7.45h72.09v39.11H120.52c2.49-33.8,12.46-66.85,29.08-96.28ZM596.48,410.53c-2.32-33.58-11.6-66.48-27.09-96.26h26.62c26.59,0,48.22,21.6,48.22,48.14,0,26.37-21.38,47.85-47.76,48.11ZM581.56,410.55h-184.89v-46.55c0-4.11-3.34-7.45-7.45-7.45h-72.09v-40.19c0-.73-.14-1.42-.33-2.09h235.68c16.62,29.43,26.6,62.49,29.08,96.28ZM351.04,658.28c-54.94,0-108.15-19.58-149.91-55.12-.17-.17-.34-.3-.52-.45-.76-.65-1.51-1.31-2.26-1.97-.49-.44-.99-.86-1.48-1.29-.75-.68-1.49-1.36-2.24-2.04-.49-.45-.99-.89-1.48-1.35-.73-.68-1.45-1.37-2.18-2.07-.48-.47-.98-.92-1.45-1.39-.71-.7-1.41-1.41-2.12-2.11-.48-.48-.95-.95-1.42-1.42-.71-.72-1.4-1.45-2.1-2.18-.45-.48-.91-.95-1.37-1.42-.71-.75-1.4-1.51-2.1-2.27-.43-.47-.87-.93-1.29-1.41-.7-.78-1.38-1.56-2.07-2.34-.41-.47-.83-.93-1.23-1.4-.7-.82-1.38-1.64-2.07-2.46-.38-.45-.77-.9-1.14-1.35-.71-.86-1.41-1.73-2.1-2.6-.34-.43-.7-.85-1.03-1.29-.72-.91-1.43-1.83-2.13-2.75-.31-.41-.62-.79-.92-1.19-.73-.97-1.45-1.95-2.16-2.92-.26-.37-.54-.72-.8-1.1-.72-1-1.43-2.01-2.14-3.02-.25-.36-.5-.71-.75-1.06-.74-1.06-1.45-2.14-2.17-3.22-.21-.3-.42-.6-.63-.91-.75-1.15-1.49-2.3-2.22-3.47-.16-.25-.33-.5-.48-.75-.78-1.25-1.55-2.5-2.3-3.76-.1-.17-.21-.34-.32-.52-.86-1.44-1.7-2.88-2.53-4.34-9.42-16.55-16.72-34.13-21.76-52.39h253.94c-.19.66-.33,1.35-.33,2.08v63.52c0,4.11,3.34,7.45,7.45,7.45h56.18v71.95c0,1.47.44,2.81,1.16,3.96-29.25,13.15-61.62,20.37-95.53,20.37ZM112.79,488.96c4.34,16.81,10.46,33.09,18.27,48.63h-28.17c-13.44,0-24.37-10.91-24.37-24.32s10.93-24.32,24.37-24.32h9.9ZM460.29,631.2v-76.64c0-4.11-3.34-7.45-7.45-7.45h-56.18v-56.08c0-.73-.14-1.42-.33-2.08h177.58c-17.2,62.67-59.01,113.2-113.62,142.25ZM588.05,474.07H102.9c-21.65,0-39.26,17.58-39.26,39.21s17.62,39.21,39.26,39.21h36.28c.07.12.15.24.22.36,1.15,1.94,2.33,3.85,3.53,5.76.3.48.6.95.91,1.41.99,1.54,1.99,3.07,3.02,4.59.33.48.64.96.97,1.44,1.28,1.86,2.57,3.7,3.89,5.52.25.36.52.7.78,1.06,1.13,1.52,2.26,3.04,3.42,4.54.37.49.75.98,1.13,1.46,1.39,1.79,2.81,3.55,4.25,5.3.14.17.28.33.41.49,1.33,1.6,2.69,3.18,4.07,4.77.41.47.83.93,1.24,1.4,1.38,1.55,2.78,3.09,4.2,4.61.15.17.3.33.45.5,1.56,1.65,3.15,3.27,4.74,4.88.18.18.36.38.55.56h-74.06c-48.52,0-88-39.4-88-87.83s39.47-87.84,88-87.84h493.11c34.8,0,63.12-28.28,63.12-63.04s-28.31-63.03-63.12-63.03H102.91c-13.44,0-24.37-10.9-24.37-24.32s10.93-24.32,24.37-24.32h485.15c61.68,0,111.86,50.1,111.86,111.66-.02,61.56-50.19,111.66-111.87,111.66Z"/>
      <path class="cls-1" d="M325.59,547.11h-47.72c-4.11,0-7.45,3.34-7.45,7.45s3.34,7.45,7.45,7.45h47.72c4.11,0,7.45-3.34,7.45-7.45s-3.34-7.45-7.45-7.45Z"/>
      <path class="cls-1" d="M325.59,594.75h-31.82c-4.11,0-7.45,3.34-7.45,7.45s3.34,7.45,7.45,7.45h31.82c4.11,0,7.45-3.33,7.45-7.45,0-4.11-3.34-7.45-7.45-7.45Z"/>
      <path class="cls-1" d="M527.65,102.66c0-24.14-19.67-43.79-43.85-43.79s-43.85,19.65-43.85,43.79,19.67,43.8,43.85,43.8,43.85-19.65,43.85-43.8ZM454.83,102.66c0-15.93,12.99-28.9,28.96-28.9s28.96,12.97,28.96,28.9-12.99,28.91-28.96,28.91c-15.96,0-28.96-12.97-28.96-28.91Z"/>
      <path class="cls-1" d="M230.14,356.55h-31.81c-4.11,0-7.45,3.34-7.45,7.45s3.34,7.45,7.45,7.45h31.81c4.11,0,7.45-3.33,7.45-7.45,0-4.11-3.34-7.45-7.45-7.45Z"/>
      <path class="cls-1" d="M452.85,371.44h63.63c4.11,0,7.45-3.33,7.45-7.45s-3.34-7.45-7.45-7.45h-63.63c-4.12,0-7.45,3.34-7.45,7.45,0,4.12,3.33,7.45,7.45,7.45Z"/>
    </g>
  </g>
</svg>