<svg preserveAspectRatio="none" overflow="visible" style="display: block;" width="81.0001" height="45.8827" viewBox="0 0 81.0001 45.8827" fill="none" xmlns="http://www.w3.org/2000/svg">
<g id="icon/regions">
<path id="Vector" d="M25.9812 28.2483C24.7782 27.642 23.8735 27.4142 23.2159 27.2473C22.2438 27.0003 21.984 26.933 21.6504 26.0347C20.6527 23.3303 18.2723 23.5196 16.5689 23.8981C16.2224 23.9751 16.0043 24.3183 16.0812 24.6648C16.1582 25.0113 16.5047 25.2262 16.848 25.1524C18.9139 24.6905 19.9245 25.0626 20.4442 26.4806C21.0088 28.0108 21.8429 28.2225 22.8951 28.492C23.5303 28.6524 24.3227 28.8545 25.4006 29.3967C27.1458 30.2725 26.8506 31.0584 26.1417 32.9576C25.9299 33.5254 25.6893 34.167 25.4969 34.8759C25.1151 36.2907 24.6275 36.5826 23.9538 36.99C23.3764 37.3365 22.6578 37.7696 22.0161 38.8924C21.397 39.9767 20.8195 40.4033 20.3576 40.7498C19.8988 41.0931 19.4209 41.446 19.2573 42.2191C19.1514 42.7196 19.129 43.2649 19.1386 43.7462C17.788 42.5335 17.6211 40.4868 17.4479 38.3503C17.4094 37.853 17.3677 37.3622 17.3132 36.8939C17.0437 34.5745 16.354 33.9681 15.2569 33.1726C14.843 32.871 14.3747 32.531 13.8389 31.9728C12.7032 30.7826 13.1171 30.141 13.9351 28.861C14.1404 28.5434 14.3522 28.2065 14.5478 27.8504C15.7541 25.6369 14.5863 24.5462 14.535 24.5013C14.4612 24.4339 14.3714 24.3858 14.2752 24.3601C13.4924 24.1452 13.4571 24.1002 13.1716 23.7313C13.024 23.5421 12.8219 23.2822 12.4915 22.9357C11.7857 22.1947 11.1313 22.2203 10.4928 22.246C9.89936 22.2685 9.1551 22.2973 7.87509 21.7616C6.33843 21.1168 6.2839 20.8409 6.05288 19.6795C5.93419 19.0829 5.77058 18.2648 5.35032 17.1837C4.67343 15.4417 4.96857 14.3927 5.28616 13.2859C5.49789 12.5416 5.71604 11.7717 5.63584 10.8221C5.48506 9.02243 4.24676 8.48023 3.15285 8.00226C2.6139 7.76807 2.10706 7.54352 1.69003 7.18422C1.23128 6.78642 1.26336 6.47203 1.27619 6.36617C1.31147 6.02932 1.59699 5.7406 1.94987 5.68606C2.99886 5.52245 5.14185 5.28506 7.68266 5.54811C9.45025 5.73739 10.7367 5.56416 11.7697 5.42621C12.8765 5.27864 13.6047 5.18239 14.3426 5.59623C15.398 6.18972 16.5337 6.10631 17.3645 6.04856C17.6757 6.02611 18.327 5.9812 18.4007 6.09348C18.3686 6.33087 17.4992 6.94364 16.1712 7.23231C15.0741 7.47292 14.1758 8.21396 13.8838 9.11866C13.6624 9.79876 13.8164 10.4981 14.3041 11.0435C14.9072 11.7172 15.8311 12.1182 16.7774 12.1214H16.7806C17.6564 12.1214 18.4392 11.7846 18.9878 11.1751C19.8732 10.187 21.073 9.12835 21.7691 9.70257C22.4204 10.2415 22.7444 11.1077 22.7187 11.6467C22.7122 11.7686 22.6834 11.9867 22.5518 12.0733C22.3626 12.2016 21.8365 12.2498 21.3713 12.2979C20.2774 12.4038 18.9171 12.5353 18.2595 13.703C17.3066 15.3936 15.8727 17.3024 13.1843 17.0971C11.3782 16.9591 10.0854 17.2992 9.34111 18.1204C8.73799 18.7813 8.52306 19.7276 8.71554 20.8601C8.77649 21.2097 9.10371 21.4439 9.45659 21.383C9.80627 21.3252 10.0405 20.9916 9.98271 20.6419C9.8576 19.9041 9.96025 19.3459 10.2907 18.9834C10.7494 18.4797 11.7183 18.268 13.088 18.3771C16.9345 18.6754 18.7118 15.5219 19.379 14.3317C19.7095 13.7479 20.6173 13.658 21.4963 13.5746C22.1732 13.5105 22.8148 13.4495 23.2736 13.1383C23.7131 12.84 23.9729 12.3331 24.005 11.7107C24.0564 10.6618 23.4885 9.45869 22.5902 8.71447C21.4065 7.73282 19.873 8.27176 18.038 10.3185C17.7365 10.6553 17.2938 10.8382 16.7869 10.8382C16.2063 10.8382 15.6256 10.5879 15.2695 10.1901C15.0834 9.98162 15.0321 9.76348 15.1123 9.51646C15.2631 9.05129 15.8148 8.62786 16.4532 8.48669C17.6402 8.22683 19.1704 7.58199 19.5811 6.61644C19.7543 6.21222 19.7222 5.78557 19.4912 5.40697C19.0229 4.64346 18.1375 4.70441 17.2809 4.76858C16.5399 4.82311 15.6993 4.88406 14.9807 4.47985C13.8707 3.8575 12.8249 3.99544 11.6123 4.15584C10.5953 4.29058 9.44366 4.44136 7.82997 4.27454C5.14167 3.99223 2.87681 4.24567 1.76359 4.4189C0.833272 4.56647 0.111469 5.3107 0.0120147 6.22821C-0.0425225 6.72225 0.0633433 7.4601 0.86218 8.15307C1.42679 8.64391 2.07805 8.92621 2.65227 9.17644C3.72377 9.64481 4.28838 9.93675 4.37182 10.928C4.43277 11.6434 4.26275 12.2401 4.06385 12.933C3.72059 14.136 3.33242 15.5027 4.16651 17.6489C4.54506 18.6241 4.68942 19.3491 4.8049 19.9297C5.08721 21.3541 5.31498 22.0759 7.38735 22.9453C8.93041 23.5933 9.90565 23.5548 10.5537 23.5292C11.1151 23.5099 11.2659 23.5003 11.5707 23.8211C11.8562 24.1195 12.0262 24.3408 12.1642 24.5173C12.5748 25.0498 12.8058 25.2679 13.7296 25.5374C13.8291 25.7395 13.9606 26.2624 13.4281 27.2377C13.2484 27.5681 13.0495 27.8761 12.8635 28.1712C12.0326 29.4704 11.0894 30.9429 12.918 32.8613C13.5307 33.5061 14.0761 33.8975 14.5124 34.2151C15.3882 34.847 15.8277 35.1679 16.0458 37.0445C16.1004 37.5001 16.1357 37.9749 16.1742 38.4561C16.3827 41.0547 16.6457 44.2305 19.6004 45.5459C19.6324 45.5619 19.6613 45.5779 19.6934 45.5908C19.9308 45.6902 20.1778 45.7833 20.4505 45.8603C20.5082 45.8763 20.566 45.8827 20.6237 45.8827C20.906 45.8827 21.1627 45.6966 21.2429 45.4143C21.3391 45.0743 21.137 44.7182 20.797 44.6252C20.6847 44.5931 20.582 44.5546 20.4762 44.5161C20.4216 43.9932 20.3767 43.1494 20.5179 42.4886C20.5788 42.203 20.7136 42.0908 21.1274 41.7828C21.6567 41.3882 22.3817 40.8493 23.1356 39.534C23.6104 38.7031 24.1013 38.4079 24.6209 38.0968C25.3748 37.6444 26.2281 37.1311 26.7446 35.2159C26.9179 34.5679 27.1392 33.9809 27.351 33.4162C28.0439 31.5652 28.7592 29.6532 25.9843 28.2578L25.9812 28.2483Z" fill="#231AA8"/>
<path id="Vector_2" d="M21.2252 4.4014C21.7096 4.6035 22.3544 4.76391 23.0153 4.76391C23.5542 4.76391 24.106 4.65804 24.5872 4.38857C25.2609 4.01002 25.6812 3.37801 25.8031 2.55996C25.8705 2.11725 25.7486 1.27675 24.2023 0.619084C22.6079 -0.0578122 19.8073 -0.397879 18.9155 0.763444C18.662 1.09387 18.3669 1.80603 19.1978 2.89034C19.3389 3.1181 19.8651 3.83347 21.222 4.40457L21.2252 4.4014ZM22.1363 1.36981C23.6024 1.59758 24.491 2.15578 24.5359 2.36747C24.4718 2.79093 24.2825 3.08607 23.9585 3.26576C23.4163 3.57053 22.5181 3.54807 21.7224 3.21764C20.6477 2.76852 20.3141 2.24881 20.2948 2.2167C20.2788 2.18782 20.2596 2.15574 20.2371 2.13008C19.9131 1.71624 19.9323 1.54301 19.9323 1.54301C20.0093 1.40185 20.7568 1.15484 22.1331 1.36657L22.1363 1.36981Z" fill="#231AA8"/>
<path id="Vector_3" d="M64.9137 27.8316C65.1639 27.5813 65.1671 27.1771 64.9169 26.9237C64.4549 26.4585 64.333 25.8266 64.2817 25.1785C64.4517 25.1978 64.641 25.2106 64.8335 25.2106C65.3564 25.2106 65.9274 25.1176 66.3573 24.8064C66.7647 24.5112 66.9957 24.0717 67.0278 23.5328C67.0727 22.7051 66.7872 22.102 66.5947 21.7042C66.5594 21.6304 66.5145 21.5405 66.4856 21.47C66.5402 21.4379 66.63 21.393 66.7679 21.3416C68.6639 20.6134 69.6455 19.6093 69.684 18.3582C69.7065 17.5883 69.1291 16.921 68.6158 16.3339C68.4521 16.1447 68.2115 15.8688 68.0736 15.6635C68.2308 15.6442 68.4265 15.6282 68.5741 15.6186C69.5269 15.5448 70.9641 15.4357 71.2849 14.0979C71.333 13.8958 71.3811 13.7033 71.4292 13.5205C71.7564 12.2405 72.0644 11.0278 70.8678 10.1905C70.531 9.95633 69.7418 9.40455 69.7001 9.17996C69.7001 9.17996 69.7257 9.12222 69.8669 9.02598C70.4026 8.65064 71.1886 8.7533 72.2761 8.89444C72.8568 8.97144 73.5144 9.05484 74.2458 9.07731C75.9076 9.12222 76.7673 8.60572 77.1973 8.1598C77.6111 7.72992 77.8164 7.17495 77.7779 6.59752C77.7041 5.51001 76.2317 5.43618 72.0355 5.48431C70.8614 5.50035 69.6455 5.51639 69.1803 5.43298C68.8788 5.38165 68.3623 5.23087 67.7624 5.05443C65.597 4.42244 61.975 3.36699 59.0751 4.0984C57.6507 4.4577 56.2616 4.27805 54.9207 4.0984C53.0953 3.85459 51.209 3.60757 49.4542 4.83625C49.1623 5.03835 49.0917 5.43937 49.297 5.73126C49.4991 6.02319 49.9002 6.09377 50.192 5.88845C51.5394 4.94853 53.0279 5.14419 54.7539 5.37196C56.1462 5.55802 57.7277 5.76655 59.3927 5.34309C61.9527 4.69506 65.366 5.69276 67.4063 6.28942C68.0672 6.48191 68.5933 6.63589 68.9654 6.70005C69.5461 6.80271 70.7106 6.78667 72.0547 6.77062C73.3701 6.75458 75.7183 6.72571 76.4786 6.92782C76.4497 7.03689 76.3888 7.1588 76.2765 7.27428C76.0712 7.48601 75.5483 7.84531 74.2875 7.7972C73.6202 7.77795 73.0235 7.70095 72.4461 7.62396C71.1757 7.45715 70.0785 7.31599 69.1354 7.97685C68.5483 8.38747 68.4264 8.84623 68.4264 9.16381C68.4264 10.0524 69.3343 10.6877 70.1748 11.2715C70.5566 11.5378 70.5213 11.9003 70.1909 13.206C70.1427 13.3952 70.0914 13.5941 70.0433 13.8059C69.9503 14.2004 69.3086 14.2806 68.4842 14.3448C67.7432 14.4026 66.7294 14.4795 66.6941 15.4067C66.6717 16.0611 67.1689 16.6322 67.6501 17.1872C67.9709 17.5561 68.4104 18.063 68.404 18.3292C68.3784 19.1826 67.2524 19.792 66.3092 20.1546C65.9114 20.3054 65.4334 20.5428 65.2441 21.008C65.0548 21.4796 65.2569 21.8998 65.4334 22.2688C65.6002 22.6153 65.7702 22.9746 65.7413 23.4718C65.7317 23.6578 65.6675 23.7284 65.6034 23.7765C65.3275 23.9754 64.6923 23.9626 64.179 23.8792C64.0827 23.1445 63.8229 22.426 62.9727 22.1051C62.3568 21.8741 62.206 21.5822 61.9975 21.178C61.7922 20.7834 61.5355 20.2926 60.8619 20.0006C59.569 19.4424 58.6868 20.6487 58.1607 21.3673C58.0356 21.5373 57.9169 21.7009 57.8014 21.8357C57.4228 22.2719 57.3651 22.9328 57.3041 23.6354C57.272 24.0043 57.2047 24.771 57.0026 24.8865C56.5181 24.8865 55.7643 22.766 55.4819 21.9671C55.2798 21.3929 55.0873 20.8539 54.8916 20.4433C54.25 19.0991 51.5457 17.5817 50.5736 18.0212C50.2047 18.1881 49.9224 18.6404 50.179 19.2371C50.2849 19.4841 50.2753 19.7247 50.1502 19.975C49.916 20.453 49.3193 20.8668 48.5911 21.0593C47.6768 21.2999 47.2951 20.8668 46.5765 19.7343C46.1755 19.1024 45.5082 18.8136 44.8345 18.9837C44.1384 19.1601 43.6154 19.7728 43.5609 20.4786C43.4871 21.4699 44.2474 24.2096 45.9829 24.7902C46.5411 24.9763 47.1956 24.941 47.7762 24.9057C48.0842 24.8896 48.5782 24.8608 48.7707 24.9185C48.7707 24.9891 48.7515 25.1431 48.6424 25.4286C48.2703 26.4038 47.696 26.7952 47.0897 27.2091C46.4738 27.6293 45.7744 28.1041 45.614 29.1531C45.4857 29.9904 45.6397 30.6513 45.7776 31.2319C45.9284 31.8831 46.0375 32.3515 45.7776 32.9803C45.5274 33.5802 45.2996 33.8048 45.0109 34.0871C44.6548 34.4336 44.2538 34.8249 43.8271 35.7906L43.6571 36.1787C42.8936 37.9431 42.3386 39.0178 41.0329 39.0627C40.5838 39.0788 40.2021 38.9087 39.8748 38.5527C39.0792 37.6769 38.7777 35.8387 39.0632 33.6315C39.4128 30.9335 38.8675 30.0032 38.3863 29.182C38.1617 28.797 37.9821 28.4922 37.8987 27.9918C37.4816 25.5344 34.9505 25.6756 33.9913 25.7269C32.9936 25.7686 31.7809 25.3933 31.7745 25.3933C30.0615 24.6554 30.0999 22.7723 30.7448 19.7696C31.165 17.8095 32.9711 17.7613 33.1893 17.7774C33.5486 17.7838 33.8341 17.5047 33.8438 17.1518C33.8534 16.7957 33.5743 16.5038 33.2182 16.4942C32.1435 16.4653 30.0134 17.062 29.4904 19.5033C29.0285 21.6623 28.2521 25.2777 31.319 26.5931C31.38 26.6123 32.7884 27.0871 34.0619 27.0101C35.7717 26.9171 36.4679 27.2411 36.6315 28.2099C36.7566 28.9445 37.0325 29.4161 37.2795 29.8332C37.6934 30.5389 38.0815 31.2062 37.7896 33.4679C37.4528 36.0824 37.8666 38.2511 38.9252 39.4156C39.4802 40.0251 40.1892 40.3459 40.9784 40.3459C41.0105 40.3459 41.0425 40.3459 41.0746 40.3427C43.2882 40.2721 44.1479 38.2832 44.8376 36.6856L45.0044 36.3038C45.3284 35.5692 45.5979 35.3062 45.9091 35.0046C46.2396 34.6806 46.6181 34.3149 46.9678 33.4711C47.3849 32.4638 47.1956 31.6554 47.032 30.9432C46.9101 30.4267 46.7978 29.9423 46.8876 29.3488C46.9614 28.8741 47.2405 28.6655 47.8147 28.2741C48.4916 27.8154 49.3322 27.2444 49.8455 25.8906C49.9513 25.6115 50.2721 24.7678 49.8262 24.155C49.3739 23.5359 48.527 23.5872 47.7089 23.6321C47.2438 23.6578 46.7177 23.6867 46.3936 23.5808C45.4312 23.26 44.7928 21.2646 44.8441 20.5813C44.8538 20.4306 44.9917 20.2766 45.1489 20.2349C45.2002 20.222 45.3414 20.1867 45.505 20.4434C46.1402 21.4411 47.0063 22.8109 48.9183 22.3072C50.0122 22.0217 50.9041 21.3641 51.305 20.5492C51.4975 20.1579 51.5713 19.7504 51.5232 19.343C52.245 19.6221 53.4191 20.331 53.7367 20.9983C53.9035 21.3448 54.0832 21.8581 54.2757 22.397C54.9333 24.2544 55.6134 26.1729 57.0057 26.1729C58.3691 26.1729 58.4974 24.7165 58.5841 23.754C58.6161 23.4044 58.6675 22.8141 58.7733 22.6825C58.9113 22.5253 59.0524 22.3329 59.2 22.134C59.7454 21.3897 60.0566 21.0593 60.3581 21.1844C60.6019 21.2903 60.6918 21.4411 60.865 21.7747C61.112 22.2527 61.4521 22.9039 62.5267 23.3114C62.8507 23.4333 62.9181 23.7605 62.9694 24.7454C63.0176 25.7078 63.0785 26.9044 64.0088 27.8443C64.259 28.0977 64.6633 28.0977 64.9167 27.8475L64.9137 27.8316Z" fill="#231AA8"/>
<path id="Vector_4" d="M33.3743 15.2259C34.1506 15.8033 35.1708 15.4119 36.0723 15.0623C36.7427 14.8056 37.5031 14.5105 37.7885 14.7671C39.6973 16.4899 41.6959 15.5563 42.8893 15.0013C43.1138 14.8954 43.4026 14.7607 43.5886 14.703C43.6271 14.9885 43.5148 15.4729 43.1844 15.9766C42.9663 16.3102 42.1482 17.4074 40.7366 17.3047C39.2289 17.2052 37.6409 16.9646 36.5886 16.8074C35.8027 16.6888 35.4145 16.631 35.1932 16.631C34.8403 16.631 34.5516 16.9165 34.5516 17.2726C34.5516 17.6287 34.8403 17.9142 35.1932 17.9142C35.3279 17.9142 35.8701 17.9976 36.3961 18.0746C37.4676 18.2382 39.0908 18.482 40.6532 18.5847C40.7366 18.5911 40.8168 18.5943 40.9002 18.5943C42.2252 18.5943 43.4667 17.8918 44.2623 16.6791C44.8943 15.7135 45.0579 14.6741 44.689 13.9651C44.1821 12.9867 43.1235 13.4775 42.3503 13.84C40.9772 14.4816 39.832 14.8858 38.6514 13.8176C37.782 13.0316 36.5822 13.4936 35.6166 13.8657C35.113 14.0582 34.3558 14.3533 34.1441 14.1961C33.6565 13.8336 34.1409 12.6499 34.3237 12.297C34.5644 11.7163 34.991 11.7131 36.5533 12.0114C36.9671 12.0884 37.4355 12.1783 37.9296 12.2392C39.9891 12.4926 41.2082 12.5568 42.2733 10.9271C42.7673 10.17 42.9277 9.40645 42.7384 8.71996C42.5427 8.02061 42.0134 7.45597 41.1601 7.04854C39.7838 6.39089 38.9818 7.74469 38.5968 8.3991C38.568 8.44722 38.5359 8.50175 38.5038 8.55629C38.1349 8.31569 37.7852 8.33494 37.5093 8.34777C37.211 8.36381 36.9287 8.37664 36.3929 8.04621C36.2839 7.97884 36.1844 7.87619 36.2101 7.6035C36.2903 6.78225 37.3938 5.47661 38.7573 4.96004C39.7838 4.56866 41.0029 5.27122 42.0808 5.88716C42.9951 6.41328 43.7875 6.8624 44.5478 6.75654C45.8887 6.56406 47.5666 6.3395 47.5666 6.3395L47.3965 5.0691C47.3965 5.0691 45.7123 5.29366 44.365 5.48614C44.0377 5.53747 43.3384 5.13005 42.716 4.77395C41.4585 4.05214 39.893 3.15706 38.2986 3.75699C36.5758 4.41143 35.0649 6.07959 34.9301 7.47507C34.8627 8.17763 35.1483 8.78399 35.7129 9.1336C36.5887 9.67896 37.179 9.64688 37.5703 9.62763C37.8045 9.6148 37.8045 9.6148 37.8879 9.71425C38.1606 10.0286 38.4718 10.0511 38.6322 10.0383C39.1422 9.99335 39.4117 9.5346 39.6973 9.05021C40.2041 8.19364 40.3806 8.09738 40.5987 8.20333C41.1056 8.44714 41.4072 8.73586 41.497 9.0631C41.6093 9.46731 41.3944 9.91647 41.1955 10.2244C40.6052 11.1291 40.1978 11.2254 38.0837 10.9655C37.6313 10.911 37.2047 10.8275 36.7908 10.7506C35.3247 10.4715 33.8074 10.1859 33.1625 11.7482C32.6909 12.6336 32.2065 14.3596 33.3775 15.2257L33.3743 15.2259Z" fill="#231AA8"/>
<path id="Vector_5" d="M70.3415 26.1859C70.38 25.9421 70.2742 25.6983 70.0721 25.5572L69.408 25.1016C69.1161 24.9027 68.7151 24.9765 68.5162 25.2684C68.4456 25.3743 68.4071 25.493 68.4039 25.6117C68.2852 25.6406 68.1761 25.7047 68.0895 25.801C68.0863 25.8042 67.6982 26.218 67.1303 26.4233C66.7357 26.5645 66.309 26.7698 66.139 27.2093C65.9754 27.6295 66.1294 28.0305 66.3219 28.4027L66.4085 28.5791C66.7357 29.256 67.0469 29.5415 68.112 29.5671H68.1569C68.6092 29.5671 69.0103 29.3939 69.3214 29.0603C69.8668 28.4764 69.9951 27.5396 69.9374 26.9173C69.9245 26.7729 69.947 26.7023 69.9598 26.6767C70.1619 26.5901 70.3095 26.4072 70.3448 26.1859L70.3415 26.1859ZM68.3814 28.1813C68.3109 28.2551 68.2467 28.2776 68.144 28.2808C67.7976 28.2712 67.6917 28.2359 67.6821 28.2359C67.6564 28.207 67.6051 28.1011 67.5634 28.0145L67.4607 27.8092C67.4351 27.7611 67.4158 27.7226 67.403 27.6905C67.4447 27.6713 67.496 27.652 67.5666 27.6263C68.0286 27.4595 68.4007 27.2125 68.6541 27.0104C68.6541 27.02 68.6541 27.0264 68.6573 27.0329C68.6926 27.4146 68.5996 27.9472 68.3814 28.1813Z" fill="#231AA8"/>
<path id="Vector_6" d="M67.0922 31.5809C67.397 31.5809 67.7114 31.552 68.0066 31.5232C68.276 31.4975 68.6866 31.459 68.8021 31.4911C69.1454 31.5905 69.4983 31.3948 69.5977 31.0548C69.6972 30.7147 69.5015 30.3586 69.1614 30.2592C68.8182 30.1597 68.3883 30.2014 67.8878 30.2464C67.4772 30.2849 66.7939 30.349 66.595 30.2303C66.1555 29.9673 65.562 29.2615 65.3695 29.0112C65.1546 28.7289 64.7504 28.6776 64.4712 28.8925C64.1889 29.1075 64.1376 29.5117 64.3525 29.7908C64.4392 29.9031 65.2123 30.8944 65.9373 31.3275C66.2613 31.5232 66.672 31.5809 67.0955 31.5809L67.0922 31.5809Z" fill="#231AA8"/>
<path id="Vector_7" d="M71.6253 29.8553L71.1377 29.9195C70.788 29.9644 70.5378 30.2884 70.5859 30.6381C70.6276 30.9621 70.9035 31.1963 71.2211 31.1963C71.25 31.1963 71.2789 31.1931 71.3045 31.1899L71.7922 31.1257C72.1418 31.0808 72.3921 30.7568 72.3439 30.4071C72.2958 30.0542 71.975 29.8104 71.6253 29.8553Z" fill="#231AA8"/>
<path id="Vector_8" d="M72.5044 26.4516C72.5044 26.0987 72.2188 25.81 71.8628 25.81C71.5099 25.81 71.2212 26.0955 71.2212 26.4484C71.2212 26.4516 71.2179 26.8173 71.1345 27.5295C71.0928 27.8824 71.3431 28.2 71.6959 28.2417C71.7216 28.2449 71.7473 28.2449 71.7729 28.2449C72.0937 28.2449 72.3696 28.0043 72.4081 27.6803C72.5044 26.8815 72.5044 26.4676 72.5044 26.4516Z" fill="#231AA8"/>
<path id="Vector_9" d="M75.2862 27.7297C75.1386 27.7682 74.9943 27.8035 74.8499 27.8388C74.9012 27.5405 74.7344 27.2389 74.4425 27.1298C74.1089 27.0079 73.7399 27.1747 73.618 27.5084C73.5763 27.6207 73.2234 28.644 73.9068 29.3626C73.9677 29.4268 74.0319 29.5006 74.0992 29.5808C74.5131 30.062 75.2028 30.8672 76.5886 31.0917C76.9126 31.143 77.2174 31.1687 77.5029 31.1687C78.2568 31.1687 78.8664 30.9891 79.2353 30.6458C79.5176 30.3827 79.6556 30.0331 79.6203 29.6641C79.5401 28.782 79.2289 28.1435 78.6931 27.7682C77.7532 27.1041 76.4411 27.4378 75.283 27.7329L75.2862 27.7297ZM78.3403 29.7251C78.2056 29.8182 77.6987 29.9722 76.7972 29.8246C76.0786 29.7091 75.6648 29.3851 75.3376 29.0418C75.4242 29.0194 75.5141 28.9969 75.6039 28.9745C76.4476 28.7595 77.4966 28.4901 77.9554 28.8141C78.1607 28.9616 78.2922 29.2664 78.3404 29.7284L78.3403 29.7251Z" fill="#231AA8"/>
<path id="Vector_10" d="M74.5743 14.6514C74.6096 14.3049 74.3594 13.9969 74.0129 13.9552C73.6664 13.9103 73.3488 14.1605 73.2975 14.507C73.2911 14.5455 73.1468 15.4694 71.7962 16.2008C71.485 16.3709 71.3695 16.759 71.5363 17.0702C71.6518 17.2852 71.8732 17.4071 72.1009 17.4071C72.2036 17.4071 72.3095 17.3814 72.4057 17.3301C74.3851 16.2586 74.5647 14.7155 74.5711 14.6514L74.5743 14.6514Z" fill="#231AA8"/>
<path id="Vector_11" d="M77.7797 36.19C77.6834 36.0713 77.5808 35.9462 77.4749 35.8083C77.1413 35.3784 76.9007 34.9998 76.7242 34.7208C76.4131 34.2299 76.166 33.845 75.6688 33.9188C75.4699 33.9476 75.21 34.0663 75.0689 34.4545C74.9951 34.4769 74.8379 34.4962 74.6743 34.4385C74.4914 34.3711 74.3727 34.2395 74.315 34.0374C73.869 32.5104 72.6211 32.7157 71.9506 32.8248C71.8352 32.844 71.7229 32.8633 71.6074 32.8761C71.0524 32.9403 70.5744 33.3509 70.0194 33.8289C69.4837 34.2877 68.8774 34.8106 68.271 34.8683C67.4274 34.9613 66.683 35.449 66.2307 36.2061C65.7078 37.0754 65.6244 38.1726 66.0093 39.1382C66.1056 39.3788 66.2243 39.6258 66.3654 39.8632C67.408 41.6533 69.2142 40.8609 70.292 40.3861C70.6096 40.245 70.9112 40.1134 71.1454 40.0621C71.2288 40.1102 71.3892 40.4086 71.4951 40.6075C71.7774 41.14 72.1656 41.8683 72.9996 42.266C73.3461 42.4328 73.6861 42.5066 74.0166 42.5066C75.4602 42.5066 76.7466 41.1143 77.754 39.8022C79.127 38.0185 78.6586 37.2679 77.7828 36.1932L77.7797 36.19ZM76.7339 39.0163C75.3288 40.8417 74.3439 41.4833 73.5451 41.1048C73.0928 40.8898 72.865 40.4567 72.6212 40.0011C72.3549 39.5039 71.97 38.7789 71.1616 38.7789C71.0621 38.7789 70.9563 38.7885 70.844 38.8142C70.5103 38.8847 70.1478 39.0419 69.7661 39.212C68.4123 39.8054 67.8605 39.8985 67.4659 39.2152C67.3568 39.0291 67.267 38.8462 67.1964 38.6634C66.9622 38.0763 67.0136 37.3866 67.3247 36.8669C67.575 36.4498 67.9599 36.1932 68.438 36.1387C69.4004 36.0456 70.2023 35.3559 70.8504 34.8009C71.1423 34.5507 71.585 34.1689 71.7519 34.1497C71.8866 34.1336 72.0182 34.1112 72.1529 34.0919C72.9292 33.9636 72.9613 33.9989 73.08 34.3967C73.3238 35.2308 74.0328 35.7376 74.9118 35.7633C75.2198 35.7633 75.4989 35.6896 75.7299 35.558C75.9095 35.8403 76.1437 36.1964 76.4581 36.6006C76.5736 36.7482 76.6827 36.8797 76.7821 37.0048C77.4815 37.8614 77.5552 37.9512 76.7308 39.0195L76.7339 39.0163Z" fill="#231AA8"/>
<path id="Vector_12" d="M80.7556 40.1763C80.4765 39.9582 80.0723 40.0063 79.8541 40.2886C79.8444 40.3014 78.7986 41.636 77.9068 42.2808C77.6181 42.4893 77.5539 42.8903 77.7624 43.1758C77.8875 43.3491 78.0832 43.4421 78.2821 43.4421C78.4137 43.4421 78.542 43.4036 78.6575 43.3202C79.6968 42.5695 80.8197 41.1388 80.8646 41.0777C81.0827 40.7986 81.0314 40.3944 80.7523 40.1763L80.7556 40.1763Z" fill="#231AA8"/>
<path id="Vector_13" d="M48.3979 36.4808C48.0931 36.2979 47.6985 36.4006 47.5189 36.7053L46.9094 37.7319C46.7297 38.0367 46.8292 38.4313 47.1339 38.6109C47.2366 38.6719 47.3489 38.7007 47.4611 38.7007C47.6793 38.7007 47.8942 38.5885 48.0129 38.3864L48.6225 37.3598C48.8021 37.055 48.7026 36.6604 48.3979 36.4808Z" fill="#231AA8"/>
<path id="Vector_14" d="M59.6045 25.9087L59.4217 26.1236C59.1939 26.3931 59.226 26.7973 59.4955 27.0283C59.6174 27.131 59.7649 27.1791 59.9093 27.1791C60.0922 27.1791 60.2718 27.1021 60.4001 26.9513L60.583 26.7364C60.8108 26.4669 60.7787 26.0627 60.5092 25.8317C60.2397 25.6039 59.8355 25.636 59.6045 25.9055L59.6045 25.9087Z" fill="#231AA8"/>
<path id="Vector_15" d="M20.1845 16.2987L20.0017 16.5136C19.7739 16.7831 19.806 17.1873 20.0755 17.4183C20.1974 17.521 20.3449 17.5691 20.4893 17.5691C20.6722 17.5691 20.8518 17.4921 20.9801 17.3413L21.163 17.1264C21.3908 16.8569 21.3587 16.4527 21.0892 16.2217C20.8197 15.9939 20.4155 16.026 20.1845 16.2955L20.1845 16.2987Z" fill="#231AA8"/>
<path id="Vector_16" d="M24.4643 6.35971L24.2814 6.57785C24.0536 6.84733 24.0857 7.25475 24.3584 7.48255C24.4803 7.58521 24.6247 7.63332 24.7722 7.63332C24.9551 7.63332 25.1347 7.55633 25.2631 7.40556L25.4459 7.18742C25.6737 6.91794 25.6416 6.51052 25.3689 6.28272C25.0995 6.05174 24.6921 6.08703 24.4643 6.35971Z" fill="#231AA8"/>
<path id="Vector_17" d="M5.03454 30.4687L4.85168 30.6836C4.62392 30.9531 4.65599 31.3573 4.92547 31.5883C5.04737 31.691 5.19173 31.7391 5.33931 31.7391C5.52217 31.7391 5.70182 31.6621 5.83014 31.5113L6.013 31.2964C6.24077 31.0269 6.20869 30.6227 5.93921 30.3917C5.66974 30.1639 5.26553 30.196 5.03452 30.4655L5.03454 30.4687Z" fill="#231AA8"/>
</g>
</svg>
